{
  "title": "Blue.Jasmine.2013.DVDSCR.XVID.AC3.HQ.Hive-CM8 ",
  "uid": 9435158,
  "size": 1455071725,
  "categoryP": "video",
  "categoryS": "movies",
  "magnet": "?xt=urn:btih:1fd2db2d4bf4fa4cf2102dca20eda620fc85360d&amp;dn=Blue.Jasmine.2013.DVDSCR.XVID.AC3.HQ.Hive-CM8+&amp;tr=udp%3A%2F%2Ftracker.openbittorrent.com%3A80&amp;tr=udp%3A%2F%2Fopen.demonii.com%3A1337&amp;tr=udp%3A%2F%2Ftracker.coppersurfer.tk%3A6969&amp;tr=udp%3A%2F%2Fexodus.desync.com%3A6969",
  "seeders": 58,
  "leechers": 7,
  "uploader": "Acesn8s",
  "files": -1,
  "time": 1388888873,
  "description": "Blue.Jasmine.2013.DVDSCR.XVID.AC3.HQ.Hive-CM8\n\n**********************************************************************************\n\nThx Hive\n\nCM8 Doing It Right The First Time\n\nSource: DVDScr DVD-R  Big thanks DRs\n\nEncode:\n\nDVD had great quality just colours were reddish, tried cpl versions to balance the levels, finally got it done\nfixed rgb,blackbase,whitebase,contrast,brightness and added sharpness and denoise\n\ngot very nice\n\nenjoy\ntill next scr\n\nVideo: 720x304 @bitrate 1500 2pass\nAudio: English AC3 5.1 @448\nSample: yes included\n\n**********************************************************************************\n\n\nFormat                         : AVI\nFormat/Info                    : Audio Video Interleave\nFile size                      : 1.34 GiB\nDuration                       : 1h 38mn\nOverall bit rate               : 1 947 Kbps\nWriting application            : Nandub v1.0rc2\nWriting library                : Nandub build 1853/release\n\n**********************************************************************************\n\nVideo\nID                             : 0\nFormat                         : MPEG-4 Visual\nFormat profile                 : Advanced Simple@L5\nFormat settings, BVOP          : 2\nFormat settings, QPel          : Yes\nFormat settings, GMC           : No warppoints\nFormat settings, Matrix        : Default (H.263)\nMuxing mode                    : Packed bitstream\nCodec ID                       : XVID\nCodec ID/Hint                  : XviD\nDuration                       : 1h 38mn\nBit rate                       : 1 490 Kbps\nWidth                          : 720 pixels\nHeight                         : 304 pixels\nDisplay aspect ratio           : 2.35:1\nFrame rate                     : 23.976 fps\nColor space                    : YUV\nChroma subsampling             : 4:2:0\nBit depth                      : 8 bits\nScan type                      : Progressive\nCompression mode               : Lossy\nBits/(Pixel*Frame)             : 0.284\nStream size                    : 1.02 GiB (77%)\nWriting library                : XviD 1.2.1 (UTC 2008-12-04)\n\n**********************************************************************************\n\nAudio\nID                             : 1\nFormat                         : AC-3\nFormat/Info                    : Audio Coding 3\nMode extension                 : CM (complete main)\nFormat settings, Endianness    : Big\nCodec ID                       : 2000\nDuration                       : 1h 38mn\nBit rate mode                  : Constant\nBit rate                       : 448 Kbps\nChannel(s)                     : 6 channels\nChannel positions              : Front: L C R, Side: L R, LFE\nSampling rate                  : 48.0 KHz\nBit depth                      : 16 bits\nCompression mode               : Lossy\nStream size                    : 315 MiB (23%)\nAlignment                      : Split accross interleaves\nInterleave, duration           : 42 ms (1.00 video frame)\nInterleave, preload duration   : 500 ms\n\n\n**********************************************************************************\n\nIMDb:\n &lt;a href=&quot;\nhttp://www.imdb.com/title/tt2334873/&quot; rel=&quot;nofollow&quot; target=&quot;_NEW&quot;&gt;\nhttp://www.imdb.com/title/tt2334873/&lt;/a&gt;\n\n\nPlot:\n\nA New York socialite, deeply troubled and in denial, arrives in San Francisco to\nimpose upon her sister. She looks a million, but isn't bringing money, peace, or love...\n\nCast:\n\nCate Blanchett ... Jasmine\nAlec Baldwin ... Hal\nPeter Sarsgaard ... Dwight\nAndrew Dice Clay ... Augie\nLouis C.K. ... Al\n\n**********************************************************************************\n\nScreens:\n &lt;a href=&quot;\nhttp://img15.imageshack.us/img15/5135/nlmq.png&quot; rel=&quot;nofollow&quot; target=&quot;_NEW&quot;&gt;\nhttp://img15.imageshack.us/img15/5135/nlmq.png&lt;/a&gt;\n &lt;a href=&quot;\nhttp://img600.imageshack.us/img600/122/2btv.png&quot; rel=&quot;nofollow&quot; target=&quot;_NEW&quot;&gt;\nhttp://img600.imageshack.us/img600/122/2btv.png&lt;/a&gt;\n &lt;a href=&quot;\nhttp://img829.imageshack.us/img829/5324/9jq0.png&quot; rel=&quot;nofollow&quot; target=&quot;_NEW&quot;&gt;\nhttp://img829.imageshack.us/img829/5324/9jq0.png&lt;/a&gt;\n &lt;a href=&quot;\nhttp://img823.imageshack.us/img823/9544/rv2b.png&quot; rel=&quot;nofollow&quot; target=&quot;_NEW&quot;&gt;\nhttp://img823.imageshack.us/img823/9544/rv2b.png&lt;/a&gt;\n &lt;a href=&quot;\nhttp://img43.imageshack.us/img43/9553/6e30.png&quot; rel=&quot;nofollow&quot; target=&quot;_NEW&quot;&gt;\nhttp://img43.imageshack.us/img43/9553/6e30.png&lt;/a&gt;",
  "parsed": {
    "xt": "urn:btih:1fd2db2d4bf4fa4cf2102dca20eda620fc85360d",
    "dn": "Blue.Jasmine.2013.DVDSCR.XVID.AC3.HQ.Hive-CM8 ",
    "tr": [
      "udp://exodus.desync.com:6969",
      "udp://open.demonii.com:1337",
      "udp://tracker.coppersurfer.tk:6969",
      "udp://tracker.openbittorrent.com:80"
    ],
    "infoHash": "1fd2db2d4bf4fa4cf2102dca20eda620fc85360d",
    "infoHashBuffer": {
      "type": "Buffer",
      "data": [
        31,
        210,
        219,
        45,
        75,
        244,
        250,
        76,
        242,
        16,
        45,
        202,
        32,
        237,
        166,
        32,
        252,
        133,
        54,
        13
      ]
    },
    "name": "Blue.Jasmine.2013.DVDSCR.XVID.AC3.HQ.Hive-CM8 ",
    "announce": [
      "udp://exodus.desync.com:6969",
      "udp://open.demonii.com:1337",
      "udp://tracker.coppersurfer.tk:6969",
      "udp://tracker.openbittorrent.com:80"
    ],
    "urlList": []
  },
  "previous": 65,
  "peers": 5,
  "last_updated": "2016-12-24T19:18:39.837Z"
}